<svg width="22" height="30" viewBox="0 0 22 30" fill="none" xmlns="http://www.w3.org/2000/svg">
<path d="M11.6375 0.516875C11.4025 0.1925 11.0256 0 10.625 0C10.2244 0 9.8475 0.1925 9.6125 0.516875C8.62875 1.87562 0 13.9487 0 19.375C0 25.2337 4.76625 30 10.625 30C16.4838 30 21.25 25.2337 21.25 19.375C21.25 13.9487 12.6213 1.87562 11.6375 0.516875ZM10.625 27.5C6.145 27.5 2.5 23.855 2.5 19.375C2.5 15.9087 7.67688 7.69 10.625 3.41875C13.5731 7.69 18.75 15.9087 18.75 19.375C18.75 23.855 15.105 27.5 10.625 27.5Z" fill="white"/>
</svg>
